# xmcd
#
# Track frame offsets:
# 150
# 15413
# 33046
# 53548
# 69055
# 87595
# 108628
# 129216
# 141624
# 160455
# 177577
# 185775
# 194487
# 212249
# 232646
# 242163
# 250133
# 258375
#
# Disc length: 3592 seconds
#
#
# Revision: 0
# Processed by: cddbd v1.5.1PL2 Copyright (c) Steve Scherf et al.
# Submitted via: FreeRIP 2.942 
#
DISCID=fb0e0612
DTITLE=于冠華 - 泰雅音樂愛情故事
DYEAR=2005
DGENRE=Country
TTITLE0=泰雅古調(序曲)
TTITLE1=巨石崩裂
TTITLE2=懷念(泰雅母語)
TTITLE3=物換星移
TTITLE4=獵人
TTITLE5=呼喚祖靈
TTITLE6=想你愛你戀你
TTITLE7=婚禮的祝福
TTITLE8=真愛
TTITLE9=水韻之美
TTITLE10=泰雅口簧琴
TTITLE11=雨過天晴
TTITLE12=秋收
TTITLE13=凋零嚴冬
TTITLE14=懷念(音樂盒)
TTITLE15=長老的微笑
TTITLE16=愛與和平
TTITLE17=再見彩虹橋
EXTD=
EXTT0=
EXTT1=
EXTT2=
EXTT3=
EXTT4=
EXTT5=
EXTT6=
EXTT7=
EXTT8=
EXTT9=
EXTT10=
EXTT11=
EXTT12=
EXTT13=
EXTT14=
EXTT15=
EXTT16=
EXTT17=
PLAYORDER=
